# Blender 3.3.1
# www.blender.org
mtllib tree_leaves.mtl
o Tree_lp_11
v 3.999850 17.357002 -8.289577
v 3.732230 17.426502 -7.970257
v 3.860470 17.549603 -7.588877
v 4.278850 17.547901 -7.502327
v 4.541640 17.412102 -7.803887
v 4.417470 17.344902 -8.200247
v -3.489960 13.907800 1.064092
v -3.903330 13.803100 1.447932
v -3.713470 13.767100 1.993292
v -3.181150 13.896200 2.108932
v -2.832850 14.172500 1.746222
v -2.995990 14.138000 1.192182
v -8.462850 12.801900 1.272502
v -8.957310 12.591700 1.140862
v -8.885890 12.211700 1.536382
v -8.430990 12.471000 1.714652
v 1.546870 11.202700 2.464672
v 1.405540 11.017200 2.879372
v 1.810290 11.174099 3.074062
v 1.943630 11.013400 2.646592
v 8.966240 11.028102 -9.919788
v 9.259740 10.646002 -9.983388
v 9.043980 10.678302 -10.417598
v 9.053870 11.162601 -10.378398
v 1.856140 12.672999 2.967202
v 10.846600 20.303200 -5.814357
v 6.873220 24.213499 -4.222736
v 5.909520 18.568501 -3.318797
v 8.060060 15.638201 -7.835388
v 2.364550 16.665401 -7.492827
v 1.631040 21.965200 -5.260086
v 9.619360 24.771902 -9.297986
v 10.352900 19.472101 -11.530697
v 6.074390 22.868801 -13.471996
v 5.110690 17.223803 -12.568097
v 1.137340 21.134102 -10.976496
v 3.923850 25.799103 -8.955426
v -8.090400 21.510099 5.794983
v -0.851714 21.036798 6.864863
v -3.502640 25.404100 1.604994
v -4.994370 14.990799 7.091482
v 1.506830 14.855699 3.702782
v 2.428770 21.291500 0.311948
v -9.283670 22.057301 -1.419166
v -6.925120 15.876201 -4.581248
v -10.205600 15.621500 1.971663
v -4.274190 11.508900 0.678618
v 0.313567 15.403001 -3.511367
v -2.782460 21.922199 -4.807867
v -12.044300 16.722298 6.658243
v -10.864900 19.272200 2.910273
v -14.061900 15.871500 2.517503
v -12.727500 12.307899 5.248872
v -11.970300 12.129500 0.629859
v -10.819100 16.433701 -0.815477
v -7.554560 17.810398 5.884393
v -8.705710 13.506199 7.329722
v -5.462940 14.068399 3.996753
v -8.659970 10.667699 3.603982
v -7.480550 13.217600 -0.143996
v -6.797360 17.632000 1.265373
v 0.026068 13.349300 1.175912
v 1.761980 15.272300 2.181232
v 2.727270 13.256200 0.530267
v 1.364900 10.914400 1.148092
v 3.928250 11.332500 2.136212
v 4.173660 14.025900 2.774722
v -0.196977 14.176499 3.819412
v -0.442385 11.483099 3.180902
v 1.004000 12.252799 5.425352
v 1.969300 10.236699 3.774392
v 3.705200 12.159699 4.779712
v 2.366370 14.594599 4.807532
v 13.919200 11.397902 -10.975898
v 11.569000 9.366172 -12.603198
v 11.644900 12.814402 -13.238898
v 12.251300 8.876612 -9.198108
v 8.946050 8.734772 -10.362299
v 8.571310 11.168402 -12.859698
v 12.374100 14.455902 -10.226698
v 9.751220 13.824501 -7.985797
v 12.748900 12.022201 -7.729338
v 9.675270 10.376301 -7.350108
v 7.400950 11.792702 -9.613078
v 9.068930 14.314102 -11.390898
v 2.003840 21.411800 -4.552807
v 4.549630 22.668800 -2.180346
v 3.042160 19.327499 -1.677457
v -0.529795 19.531000 -2.620647
v 0.450123 19.625700 0.945959
v 3.589380 21.565001 1.218084
v 1.909330 24.937401 -3.434336
v -1.229920 22.998100 -3.706456
v -0.682710 25.235500 -0.810921
v -2.190170 21.894199 -0.308032
v 0.355617 23.151300 2.064434
v 2.889250 25.032101 0.132270
v 1.581850 12.503699 3.058042
v 1.940160 12.410999 3.185492
v 1.739950 12.659000 2.712972
v 2.099980 12.581000 2.842342
vn 0.6772 0.1028 0.7286
vn -0.0979 0.0123 0.9951
vn -0.9487 -0.1467 0.2802
vn -0.9487 -0.1466 0.2802
vn -0.9287 -0.1301 0.3473
vn -0.7653 -0.1559 -0.6245
vn -0.7653 -0.1558 -0.6246
vn 0.0994 0.0380 -0.9943
vn 0.9694 0.1564 -0.1895
vn -0.0534 -0.0448 -0.9976
vn 0.9152 0.1943 -0.3529
vn 0.7694 0.1848 0.6114
vn -0.0887 0.0478 0.9949
vn -0.0887 0.0479 0.9949
vn -0.6647 -0.0933 -0.7412
vn -0.6647 -0.0933 -0.7413
vn 0.1220 -0.2362 0.9640
vn -0.1868 0.9568 0.2230
vn -0.1868 0.9567 0.2231
vn 0.1948 -0.9662 -0.1687
vn 0.1949 -0.9662 -0.1687
vn -0.1005 -0.0149 -0.9948
vn -0.9535 0.1689 -0.2494
vn -0.9535 0.1690 -0.2494
vn -0.4137 -0.0601 0.9084
vn 0.9302 -0.1354 0.3411
vn 0.4423 0.0676 -0.8943
vn 0.0761 0.8957 0.4380
vn 0.0762 0.8957 0.4380
vn 0.0762 0.8958 0.4380
vn 0.0761 0.8958 0.4380
vn 0.0295 0.8902 0.4547
vn 0.9094 -0.0522 -0.4127
vn -0.9300 -0.0730 -0.3602
vn 0.4646 0.0084 -0.8855
vn 0.9452 0.1170 0.3048
vn -0.3909 0.0320 0.9199
vn -0.1447 0.5649 -0.8124
vn 0.8438 0.4461 0.2984
vn 0.2174 -0.4986 0.8391
vn -0.8398 -0.5010 -0.2092
vn 0.4301 0.0707 0.9000
vn 0.5204 -0.5817 0.6252
vn -0.1249 -0.8584 0.4975
vn -0.6140 -0.3771 0.6934
vn -0.2710 0.1971 0.9422
vn 0.6140 0.3771 -0.6934
vn 0.2710 -0.1971 -0.9422
vn -0.4301 -0.0707 -0.9000
vn -0.5204 0.5817 -0.6252
vn 0.1249 0.8584 -0.4975
vn 0.7123 0.5426 0.4451
vn 0.8584 -0.5129 0.0004
vn -0.1857 -0.9607 -0.2062
vn -0.9770 -0.1819 0.1108
vn -0.4221 0.7472 0.5134
vn 0.9770 0.1819 -0.1108
vn 0.4221 -0.7472 -0.5134
vn -0.7123 -0.5426 -0.4451
vn -0.8584 0.5129 -0.0004
vn 0.1857 0.9607 0.2062
vn -0.0469 0.7568 0.6520
vn -0.1366 0.1304 0.9820
vn 0.4407 -0.2698 0.8562
vn 0.8872 0.1091 0.4484
vn 0.5858 0.7436 0.3222
vn -0.8872 -0.1091 -0.4484
vn -0.5858 -0.7436 -0.3222
vn 0.0469 -0.7568 -0.6520
vn 0.1366 -0.1304 -0.9820
vn -0.4407 0.2698 -0.8562
vn -0.5541 0.8182 0.1537
vn -0.6993 -0.1953 0.6877
vn 0.2348 -0.8430 0.4841
vn 0.9573 -0.2297 -0.1758
vn 0.4697 0.7969 -0.3799
vn -0.9573 0.2297 0.1758
vn -0.4697 -0.7969 0.3799
vn 0.5541 -0.8182 -0.1537
vn 0.6993 0.1953 -0.6877
vn -0.2348 0.8430 -0.4841
vn -0.7235 0.6550 0.2180
vn -0.8989 -0.0008 0.4382
vn -0.8919 -0.4332 -0.1295
vn -0.7122 -0.0447 -0.7005
vn -0.6081 0.6278 -0.4858
vn 0.7122 0.0447 0.7005
vn 0.6081 -0.6278 0.4858
vn 0.7235 -0.6550 -0.2180
vn 0.8989 0.0008 -0.4382
vn 0.8919 0.4332 0.1295
vn -0.1108 0.8376 0.5350
vn -0.3946 -0.2235 0.8913
vn -0.3833 -0.9232 -0.0272
vn -0.0925 -0.2946 -0.9511
vn 0.0759 0.7936 -0.6037
vn 0.0925 0.2946 0.9511
vn -0.0759 -0.7936 0.6037
vn 0.1108 -0.8376 -0.5350
vn 0.3946 0.2235 -0.8913
vn 0.3833 0.9232 0.0272
vn -0.1717 0.5737 -0.8009
vn -0.2347 -0.1180 -0.9649
vn 0.3846 -0.4381 -0.8125
vn 0.8305 0.0557 -0.5543
vn 0.4866 0.6810 -0.5471
vn -0.8305 -0.0557 0.5543
vn -0.4866 -0.6810 0.5471
vn 0.1717 -0.5737 0.8009
vn 0.2347 0.1180 0.9649
vn -0.3846 0.4381 0.8125
vn -0.6358 0.7197 -0.2789
vn -0.7378 -0.3994 -0.5442
vn 0.2643 -0.9174 -0.2976
vn 0.9857 -0.1183 0.1202
vn 0.4293 0.8935 0.1318
vn -0.9857 0.1183 -0.1202
vn -0.4293 -0.8935 -0.1318
vn 0.6358 -0.7197 0.2789
vn 0.7378 0.3994 0.5442
vn -0.2643 0.9174 0.2976
vn 0.6480 -0.1519 -0.7463
vn 0.7243 -0.6471 -0.2382
vn 0.0988 -0.9820 -0.1610
vn -0.3639 -0.6938 -0.6215
vn -0.0245 -0.1807 -0.9832
vn 0.3639 0.6938 0.6215
vn 0.0245 0.1807 0.9832
vn -0.6480 0.1519 0.7463
vn -0.7243 0.6471 0.2382
vn -0.0988 0.9820 0.1610
vn 0.7493 0.4882 -0.4474
vn 0.8727 -0.3130 0.3748
vn -0.1393 -0.8550 0.4996
vn -0.8881 -0.3886 -0.2454
vn -0.3389 0.4415 -0.8308
vn 0.8881 0.3886 0.2454
vn 0.3389 -0.4415 0.8308
vn -0.7493 -0.4882 0.4475
vn -0.8727 0.3130 -0.3748
vn 0.1393 0.8550 -0.4996
vn 0.7220 -0.4096 -0.5577
vn 0.1165 -0.7837 -0.6101
vn -0.0688 -0.9966 0.0454
vn 0.4223 -0.7541 0.5029
vn 0.9110 -0.3914 0.1303
vn -0.4223 0.7541 -0.5029
vn -0.9110 0.3914 -0.1303
vn -0.7220 0.4096 0.5576
vn -0.1165 0.7837 0.6101
vn 0.0687 0.9966 -0.0453
vn 0.5869 0.2591 -0.7671
vn -0.3928 -0.3461 -0.8520
vn -0.6925 -0.6906 0.2086
vn 0.1020 -0.2983 0.9490
vn 0.8927 0.2886 0.3460
vn -0.1020 0.2983 -0.9490
vn -0.8927 -0.2886 -0.3460
vn -0.5869 -0.2591 0.7671
vn 0.3928 0.3461 0.8520
vn 0.6925 0.6906 -0.2086
vt 0.010000 0.990000
vt 0.321746 0.990000
vt 0.061958 0.988661
vt 0.113915 0.989790
vt 0.165873 0.990000
vt 0.217831 0.988661
vt 0.269788 0.989790
vt 0.377370 0.709654
vt 0.065625 0.709654
vt 0.117582 0.713252
vt 0.169540 0.711774
vt 0.221498 0.709654
vt 0.273455 0.713252
vt 0.325413 0.711774
vt 0.749691 0.576322
vt 0.578416 0.577857
vt 0.635508 0.576322
vt 0.692599 0.577857
vt 0.474336 0.930396
vt 0.659786 0.930396
vt 0.520698 0.924894
vt 0.567061 0.930396
vt 0.613423 0.924894
vt 0.676477 0.283809
vt 0.520932 0.289510
vt 0.572781 0.283809
vt 0.624629 0.289510
vt 0.170651 0.062277
vt 0.088423 0.846225
vt 0.010000 0.846225
vt 0.402114 0.846225
vt 0.049211 0.990000
vt 0.127634 0.990000
vt 0.206057 0.990000
vt 0.284480 0.990000
vt 0.362902 0.990000
vt 0.166845 0.846225
vt 0.245268 0.846225
vt 0.323691 0.846225
vt 0.049211 0.702450
vt 0.441325 0.702450
vt 0.127634 0.702450
vt 0.088423 0.558675
vt 0.166845 0.558675
vt 0.245268 0.558675
vt 0.323691 0.558675
vt 0.402114 0.558675
vt 0.206057 0.702450
vt 0.284480 0.702450
vt 0.362902 0.702450
vt 0.109188 0.373689
vt 0.059594 0.555533
vt 0.158782 0.555533
vt 0.257969 0.555533
vt 0.357157 0.555533
vt 0.456345 0.555533
vt 0.010000 0.373689
vt 0.505939 0.373689
vt 0.208375 0.373689
vt 0.307564 0.373689
vt 0.406751 0.373689
vt 0.059594 0.191844
vt 0.555533 0.191844
vt 0.109188 0.010000
vt 0.208375 0.010000
vt 0.307564 0.010000
vt 0.406751 0.010000
vt 0.505939 0.010000
vt 0.158782 0.191844
vt 0.257969 0.191844
vt 0.357157 0.191844
vt 0.456345 0.191844
vt 0.464198 0.872173
vt 0.400837 0.872173
vt 0.717642 0.872173
vt 0.432518 0.988334
vt 0.495878 0.988334
vt 0.559239 0.988334
vt 0.622601 0.988334
vt 0.685962 0.988334
vt 0.527559 0.872173
vt 0.590920 0.872173
vt 0.654281 0.872173
vt 0.432518 0.756011
vt 0.749323 0.756011
vt 0.495878 0.756011
vt 0.464198 0.639849
vt 0.527559 0.639849
vt 0.590920 0.639849
vt 0.654281 0.639849
vt 0.717642 0.639849
vt 0.559239 0.756011
vt 0.622601 0.756011
vt 0.685962 0.756011
vt 0.748090 0.583761
vt 0.710500 0.583761
vt 0.898447 0.583761
vt 0.729295 0.652675
vt 0.766884 0.652675
vt 0.804473 0.652675
vt 0.842063 0.652675
vt 0.879652 0.652675
vt 0.785679 0.583761
vt 0.823268 0.583761
vt 0.860858 0.583761
vt 0.729295 0.514847
vt 0.917241 0.514847
vt 0.766884 0.514847
vt 0.748090 0.445934
vt 0.785679 0.445934
vt 0.823268 0.445934
vt 0.860858 0.445934
vt 0.898447 0.445934
vt 0.804473 0.514847
vt 0.842063 0.514847
vt 0.879652 0.514847
vt 0.588077 0.268129
vt 0.564357 0.355103
vt 0.611797 0.355103
vt 0.659238 0.355103
vt 0.706678 0.355103
vt 0.754119 0.355103
vt 0.540636 0.268129
vt 0.777839 0.268129
vt 0.635517 0.268129
vt 0.682958 0.268129
vt 0.730399 0.268129
vt 0.564357 0.181155
vt 0.801559 0.181155
vt 0.588077 0.094180
vt 0.635517 0.094180
vt 0.682958 0.094180
vt 0.730399 0.094180
vt 0.777839 0.094180
vt 0.611797 0.181155
vt 0.659238 0.181155
vt 0.706678 0.181155
vt 0.754119 0.181155
vt 0.515525 0.543765
vt 0.465475 0.543765
vt 0.715723 0.543765
vt 0.490500 0.635522
vt 0.540550 0.635522
vt 0.590599 0.635522
vt 0.640649 0.635522
vt 0.690698 0.635522
vt 0.565574 0.543765
vt 0.615624 0.543765
vt 0.665673 0.543765
vt 0.490500 0.452007
vt 0.740748 0.452007
vt 0.540550 0.452007
vt 0.515525 0.360250
vt 0.565574 0.360250
vt 0.615624 0.360250
vt 0.665673 0.360250
vt 0.715723 0.360250
vt 0.590599 0.452007
vt 0.640649 0.452007
vt 0.690698 0.452007
vt 0.531276 0.982187
vt 0.170651 0.081439
vt 0.577638 0.981110
vt 0.151488 0.062277
vt 0.484913 0.986216
vt 0.670363 0.986216
vt 0.189813 0.062277
vt 0.624001 0.985614
vt 0.170651 0.043114
s 0
usemtl Bark
f 11/13/1 10/12/2 9/11/3 8/10/4 3/4/5 2/3/6 1/1/7 7/8/8 12/14/9
f 1/2/10 6/7/11 5/6/12 4/5/13 3/4/14 8/10/15 7/9/16
f 22/25/17 21/24/18 24/27/19
f 23/26/20 22/25/21 24/27/22
f 17/19/23 18/21/23 98/161/24 100/165/24
f 18/21/25 19/22/25 99/163/25 98/161/25
f 20/23/26 101/168/26 99/163/26 19/22/26
f 20/23/27 17/20/27 100/166/27 101/168/27
f 98/162/28 99/164/29 25/28/30 100/167/31
f 99/164/32 101/169/32 100/167/32
f 99/164/33 100/167/33 25/28/33
f 18/21/34 17/20/35 20/23/36 19/22/37
f 14/16/38 13/15/39 16/18/40 15/17/41
usemtl Tree
f 26/29/42 27/30/42 28/32/42
f 29/37/43 26/29/43 28/33/43
f 30/38/44 29/37/44 28/34/44
f 31/39/45 30/38/45 28/35/45
f 27/31/46 31/39/46 28/36/46
f 32/40/47 33/42/47 34/43/47
f 33/42/48 35/48/48 34/44/48
f 35/48/49 36/49/49 34/45/49
f 36/49/50 37/50/50 34/46/50
f 37/50/51 32/41/51 34/47/51
f 26/29/52 32/40/52 27/30/52
f 29/37/53 33/42/53 26/29/53
f 30/38/54 35/48/54 29/37/54
f 31/39/55 36/49/55 30/38/55
f 27/31/56 37/50/56 31/39/56
f 32/40/57 26/29/57 33/42/57
f 33/42/58 29/37/58 35/48/58
f 35/48/59 30/38/59 36/49/59
f 36/49/60 31/39/60 37/50/60
f 37/50/61 27/31/61 32/41/61
f 38/51/62 39/52/62 40/57/62
f 41/59/63 39/53/63 38/51/63
f 42/60/64 39/54/64 41/59/64
f 43/61/65 39/55/65 42/60/65
f 40/58/66 39/56/66 43/61/66
f 44/62/67 45/64/67 46/69/67
f 46/69/68 45/65/68 47/70/68
f 47/70/69 45/66/69 48/71/69
f 48/71/70 45/67/70 49/72/70
f 49/72/71 45/68/71 44/63/71
f 38/51/72 40/57/72 44/62/72
f 41/59/73 38/51/73 46/69/73
f 42/60/74 41/59/74 47/70/74
f 43/61/75 42/60/75 48/71/75
f 40/58/76 43/61/76 49/72/76
f 44/62/77 46/69/77 38/51/77
f 46/69/78 47/70/78 41/59/78
f 47/70/79 48/71/79 42/60/79
f 48/71/80 49/72/80 43/61/80
f 49/72/81 44/63/81 40/58/81
f 50/73/82 51/74/82 52/76/82
f 53/81/83 50/73/83 52/77/83
f 54/82/84 53/81/84 52/78/84
f 55/83/85 54/82/85 52/79/85
f 51/75/86 55/83/86 52/80/86
f 56/84/87 57/86/87 58/87/87
f 57/86/88 59/92/88 58/88/88
f 59/92/89 60/93/89 58/89/89
f 60/93/90 61/94/90 58/90/90
f 61/94/91 56/85/91 58/91/91
f 50/73/92 56/84/92 51/74/92
f 53/81/93 57/86/93 50/73/93
f 54/82/94 59/92/94 53/81/94
f 55/83/95 60/93/95 54/82/95
f 51/75/96 61/94/96 55/83/96
f 56/84/97 50/73/97 57/86/97
f 57/86/98 53/81/98 59/92/98
f 59/92/99 54/82/99 60/93/99
f 60/93/100 55/83/100 61/94/100
f 61/94/101 51/75/101 56/85/101
f 62/95/102 63/96/102 64/98/102
f 65/103/103 62/95/103 64/99/103
f 66/104/104 65/103/104 64/100/104
f 67/105/105 66/104/105 64/101/105
f 63/97/106 67/105/106 64/102/106
f 68/106/107 69/108/107 70/109/107
f 69/108/108 71/114/108 70/110/108
f 71/114/109 72/115/109 70/111/109
f 72/115/110 73/116/110 70/112/110
f 73/116/111 68/107/111 70/113/111
f 62/95/112 68/106/112 63/96/112
f 65/103/113 69/108/113 62/95/113
f 66/104/114 71/114/114 65/103/114
f 67/105/115 72/115/115 66/104/115
f 63/97/116 73/116/116 67/105/116
f 68/106/117 62/95/117 69/108/117
f 69/108/118 65/103/118 71/114/118
f 71/114/119 66/104/119 72/115/119
f 72/115/120 67/105/120 73/116/120
f 73/116/121 63/97/121 68/107/121
f 74/117/122 75/118/122 76/123/122
f 77/125/123 75/119/123 74/117/123
f 78/126/124 75/120/124 77/125/124
f 79/127/125 75/121/125 78/126/125
f 76/124/126 75/122/126 79/127/126
f 80/128/127 81/130/127 82/135/127
f 82/135/128 81/131/128 83/136/128
f 83/136/129 81/132/129 84/137/129
f 84/137/130 81/133/130 85/138/130
f 85/138/131 81/134/131 80/129/131
f 74/117/132 76/123/132 80/128/132
f 77/125/133 74/117/133 82/135/133
f 78/126/134 77/125/134 83/136/134
f 79/127/135 78/126/135 84/137/135
f 76/124/136 79/127/136 85/138/136
f 80/128/137 82/135/137 74/117/137
f 82/135/138 83/136/138 77/125/138
f 83/136/139 84/137/139 78/126/139
f 84/137/140 85/138/140 79/127/140
f 85/138/141 80/129/141 76/124/141
f 86/139/142 87/140/142 88/142/142
f 89/147/143 86/139/143 88/143/143
f 90/148/144 89/147/144 88/144/144
f 91/149/145 90/148/145 88/145/145
f 87/141/146 91/149/146 88/146/146
f 92/150/147 93/152/147 94/153/147
f 93/152/148 95/158/148 94/154/148
f 95/158/149 96/159/149 94/155/149
f 96/159/150 97/160/150 94/156/150
f 97/160/151 92/151/151 94/157/151
f 86/139/152 92/150/152 87/140/152
f 89/147/153 93/152/153 86/139/153
f 90/148/154 95/158/154 89/147/154
f 91/149/155 96/159/155 90/148/155
f 87/141/156 97/160/156 91/149/156
f 92/150/157 86/139/157 93/152/157
f 93/152/158 89/147/158 95/158/158
f 95/158/159 90/148/159 96/159/159
f 96/159/160 91/149/160 97/160/160
f 97/160/161 87/141/161 92/151/161
